<svg width="115" height="19" viewBox="0 0 115 19" fill="none" xmlns="http://www.w3.org/2000/svg">
    <path fill-rule="evenodd" clip-rule="evenodd" d="M17.5256 7.05194C16.867 5.6317 16.1409 4.2338 14.924 3.21622C13.6289 2.12043 11.9876 1.46035 10.2904 1.46035C5.77873 1.46035 3.75808 5.54232 3.75808 9.55633C3.75808 13.4367 5.68948 17.3614 10.0445 17.3614C11.8202 17.3614 13.5508 16.59 14.645 15.1921V12.0616C14.645 11.2116 14.3657 10.6638 13.707 10.1605H18.3187C17.8273 10.7196 17.5256 11.2898 17.5256 12.0616V15.1921C15.4157 17.1603 12.7913 18.3682 9.87721 18.3682C4.72959 18.3682 0.52002 14.5772 0.52002 9.29937C0.52002 4.05505 4.67381 0.465576 9.75402 0.465576C12.914 0.465576 15.4711 1.6284 17.5256 3.96567V7.05194ZM110.953 1.08046H114.984C114.537 1.42726 114.269 1.8518 114.269 2.43367V16.333C114.269 16.9144 114.548 17.3278 114.984 17.6746H110.953C111.388 17.3278 111.656 16.9028 111.656 16.333V2.43367C111.656 1.8518 111.399 1.42726 110.953 1.08046ZM33.1696 1.08046H28.8261C29.3393 1.52781 29.6187 2.04219 29.6187 2.73578V12.8776C29.6187 16.6459 34.1188 18.0098 37.2007 18.0098C40.1928 18.0098 44.5144 16.6012 44.5144 12.9335V2.73578C44.5144 2.06453 44.6934 1.57296 45.1731 1.08046H42.8057C43.264 1.58367 43.4313 2.05336 43.4313 2.73578V12.9335C43.4313 15.6511 40.3718 17.0262 38.0267 17.0262C35.6369 17.0262 32.377 15.6618 32.377 12.8776V2.73578C32.377 2.00867 32.5778 1.51664 33.1696 1.08046ZM72.3289 7.10739C71.7483 5.64293 71.0673 4.35722 69.8727 3.29495C68.5883 2.15401 67.0251 1.43807 65.2945 1.43807C60.8283 1.43807 58.539 5.35199 58.539 9.41115C58.539 13.4927 60.9171 17.3503 65.3275 17.3503C68.6106 17.3503 70.9557 15.0353 72.3289 12.2512V15.2704C70.2854 17.2944 67.6507 18.3232 64.7697 18.3232C59.4324 18.3232 55.4343 14.8677 55.4343 9.35483C55.4343 3.99925 59.2762 0.476812 64.5131 0.476812C67.416 0.476812 70.2297 1.48322 72.3289 3.48487V7.10739ZM97.8773 3.29495C99.072 4.35722 99.7529 5.64293 100.334 7.10739V3.48487C98.2343 1.48322 95.4207 0.476812 92.5173 0.476812C87.2804 0.476812 83.4395 3.99925 83.4395 9.35483C83.4395 14.8677 87.4371 18.3232 92.7743 18.3232C95.6661 18.3232 98.2901 17.2944 100.334 15.2704V12.2512C98.9711 15.0353 96.6153 17.3503 93.3326 17.3503C88.9218 17.3503 86.5543 13.4927 86.5543 9.41115C86.5543 5.35199 88.8325 1.43807 93.2987 1.43807C95.0297 1.43807 96.593 2.15401 97.8773 3.29495Z" fill="#3A4850"/>
</svg>
