<svg width="135" height="27" viewBox="0 0 135 27" fill="none" xmlns="http://www.w3.org/2000/svg">
    <path fill-rule="evenodd" clip-rule="evenodd" d="M48.5032 13.5634C48.5032 7.32485 53.5938 2.25102 59.85 2.25102C66.107 2.25102 71.1965 7.32485 71.1965 13.5634C71.1965 19.8016 66.107 24.8754 59.85 24.8754C53.5938 24.8754 48.5032 19.8016 48.5032 13.5634ZM46.7832 13.5632C46.7832 20.747 52.645 26.5911 59.85 26.5911C67.0551 26.5911 72.9172 20.747 72.9172 13.5632C72.9172 6.3798 67.0551 0.534927 59.85 0.534927C52.645 0.534927 46.7832 6.3798 46.7832 13.5632Z" fill="#3A4850"/>
    <path fill-rule="evenodd" clip-rule="evenodd" d="M61.7341 13.9834H64.9154C65.8592 13.9834 66.4186 14.1576 66.7789 15C67.0768 14.2815 67.5864 13.9965 68.4575 13.9834H68.7917V18.1718H64.6543C65.0404 17.8368 65.238 17.4029 65.238 16.8959C65.238 15.9778 64.5177 15.2973 63.4984 15.2973C62.3444 15.2973 61.6596 15.9778 61.6596 16.8959C61.6596 17.5145 61.9837 17.9606 62.6041 18.1718C61.9953 18.468 61.6596 18.9888 61.6596 19.6338C61.6596 20.6504 62.3927 21.1933 63.8471 21.1933C64.0204 21.1933 64.2202 21.1809 64.4309 21.1694V22.5807H61.7341C60.7522 22.5807 60.2183 22.3833 59.871 21.5525C59.5223 22.3833 58.9883 22.5807 58.0064 22.5807H55.3097V21.1694C55.5214 21.1809 55.7198 21.1933 55.9061 21.1933C57.3475 21.1933 58.094 20.6504 58.094 19.6338C58.094 18.9888 57.7456 18.468 57.1357 18.1718C57.7583 17.9606 58.0805 17.5145 58.0805 16.8959C58.0805 15.9778 57.4096 15.2973 56.2545 15.2973C55.2348 15.2973 54.5149 15.9778 54.5149 16.8959C54.5149 17.4029 54.7012 17.8368 55.0859 18.1718H50.9492V13.9834H51.2834C52.153 13.9965 52.663 14.2815 52.962 15C53.3096 14.1696 53.844 13.9834 54.8251 13.9834H58.0064C58.9262 13.9834 59.4972 14.1326 59.871 15C60.2183 14.1696 60.7522 13.9834 61.7341 13.9834Z" fill="#3A4850"/>
    <path fill-rule="evenodd" clip-rule="evenodd" d="M57.9662 13.1433H54.7855C53.8414 13.1433 53.282 12.9691 52.9217 12.1264C52.6231 12.8453 52.1142 13.1292 51.2438 13.1433H50.9082V8.95569H55.0467C54.6609 9.28996 54.4622 9.72419 54.4622 10.2316C54.4622 11.1478 55.1829 11.8291 56.2026 11.8291C57.3573 11.8291 58.0399 11.1478 58.0399 10.2316C58.0399 9.61192 57.7181 9.16611 57.0958 8.95569C57.7053 8.65836 58.0399 8.13794 58.0399 7.49257C58.0399 6.47708 57.3076 5.93276 55.8539 5.93276C55.6802 5.93276 55.4808 5.94507 55.2705 5.95811V4.54497H57.9662C58.948 4.54497 59.4827 4.74452 59.8303 5.57422C60.1783 4.74452 60.7123 4.54497 61.6942 4.54497H64.391V5.95811C64.1795 5.94507 63.9805 5.93276 63.793 5.93276C62.3531 5.93276 61.6063 6.47708 61.6063 7.49257C61.6063 8.13794 61.9554 8.65836 62.5638 8.95569C61.9423 9.16611 61.6197 9.61192 61.6197 10.2316C61.6197 11.1478 62.291 11.8291 63.4461 11.8291C64.4651 11.8291 65.1854 11.1478 65.1854 10.2316C65.1854 9.72419 64.9994 9.28996 64.6133 8.95569H68.7514V13.1433H68.4158C67.5461 13.1292 67.0383 12.8453 66.739 12.1264C66.3921 12.9561 65.8574 13.1433 64.8755 13.1433H61.6942C60.7752 13.1433 60.2027 12.9941 59.8303 12.1264C59.4827 12.9561 58.948 13.1433 57.9662 13.1433Z" fill="#3A4850"/>
    <path fill-rule="evenodd" clip-rule="evenodd" d="M9.88477 9.00679V10.6887H6.47203V18.2063H4.14542V10.6887H0.719971V9.00679H9.88477Z" fill="#3A4850"/>
    <path fill-rule="evenodd" clip-rule="evenodd" d="M14.341 10.6738C12.6293 11.4289 12.4978 13.0593 12.4978 13.6713C12.4978 13.8553 12.5113 14.4536 12.7463 15.0005C12.812 15.1699 12.8912 15.3405 13.0997 15.627C13.1651 15.7056 13.3351 15.9515 13.5705 16.1478C13.9367 16.46 14.6432 16.8511 15.7801 16.8511C15.9883 16.8511 16.5379 16.8391 17.1129 16.6298C18.9303 15.9794 19.0872 14.1932 19.0872 13.6199C19.0872 13.2299 19.0222 12.2252 18.2626 11.3778C17.6098 10.6738 16.6294 10.3355 15.6741 10.375C15.4663 10.375 14.9171 10.4271 14.341 10.6738ZM18.9953 9.37109C19.1395 9.4475 19.401 9.57933 19.7272 9.81328C19.9884 10.0099 20.2507 10.2439 20.4595 10.505C20.8511 10.9606 21.4396 11.9772 21.4396 13.5149C21.4396 13.6982 21.4272 14.1809 21.3353 14.6879C21.2046 15.3018 20.8511 16.6298 19.4533 17.5671C18.8118 17.9847 17.636 18.5076 15.8052 18.5076C13.0616 18.5076 11.6097 17.3987 10.9431 16.4209C10.6289 15.9794 10.1189 15.0132 10.1189 13.6069C10.1189 11.4817 11.152 10.375 11.8316 9.85276C12.8385 9.08317 14.1844 8.75832 15.4256 8.71993C16.5768 8.66669 17.9626 8.86081 18.9953 9.37109Z" fill="#3A4850"/>
    <path fill-rule="evenodd" clip-rule="evenodd" d="M25.6612 12.8771H29.3612C29.3743 12.8771 29.7397 12.8771 29.9366 12.8376C30.2105 12.7597 30.747 12.5381 30.747 11.7833C30.747 11.6921 30.734 11.352 30.564 11.0913C30.277 10.6498 29.767 10.6357 29.2966 10.6215H25.6612V12.8771ZM29.715 9.00674C30.5113 9.01977 30.8655 9.05889 31.2447 9.17442C32.4325 9.5268 33.0856 10.5452 33.0856 11.7548C33.0856 11.9909 33.0733 12.4483 32.8394 12.9684C32.4202 13.9085 31.6225 14.1936 30.6809 14.362L33.491 18.2066H30.7601L28.3027 14.5061H25.6612V18.2066H23.3611V9.00674H29.715Z" fill="#3A4850"/>
    <path fill-rule="evenodd" clip-rule="evenodd" d="M36.0803 9.00679L38.5365 12.473C38.6684 12.6425 38.7327 12.7334 38.7988 12.9293C38.8391 12.8254 38.8758 12.7334 39.0226 12.5382L41.5315 9.00679H44.3405L39.9358 14.7539V18.2063H37.6364V14.7539L33.2422 9.00679H36.0803Z" fill="#3A4850"/>
    <path fill-rule="evenodd" clip-rule="evenodd" d="M79.0498 16.6839H82.5283C82.7888 16.6839 83.0645 16.6839 83.3249 16.5937C83.6395 16.4894 84.0318 16.1903 84.0318 15.4341C84.0318 15.3276 84.0064 14.9111 83.7568 14.6265C83.4957 14.3378 83.1673 14.3244 82.8011 14.3128L79.0498 14.3244V16.6839ZM79.0498 12.7087H82.3565C82.8011 12.7087 83.249 12.7087 83.4957 12.2669C83.6395 12.0315 83.6395 11.7721 83.6395 11.6812C83.6395 11.6012 83.6395 11.4201 83.5618 11.2246C83.3405 10.639 82.6856 10.6897 82.5399 10.6897H79.0498V12.7087ZM82.7481 9.10008C83.4441 9.11312 84.1873 9.12471 84.8164 9.44956C85.2476 9.68642 85.8612 10.1931 85.8612 11.3538C85.8612 11.7561 85.7816 12.6699 84.75 13.1526C84.6588 13.191 84.5426 13.2443 84.3326 13.3094C84.75 13.4127 84.9054 13.4641 85.1161 13.5684C86.2662 14.142 86.3312 15.2249 86.3312 15.6544C86.3312 16.0061 86.3061 17.0766 85.4049 17.7546C84.7104 18.288 83.9134 18.2996 83.1034 18.2996H76.7639V9.10008H82.7481Z" fill="#3A4850"/>
    <path fill-rule="evenodd" clip-rule="evenodd" d="M90.7497 9.10003V14.5201C90.7769 15.2248 90.8547 15.8123 91.482 16.2548C92.2139 16.7756 93.2743 16.7506 93.482 16.7506C93.6513 16.7506 94.566 16.7506 95.2089 16.3856C95.6383 16.1494 95.8497 15.8249 95.9412 15.6547C96.0459 15.4454 96.0713 15.2886 96.0967 14.8471V9.10003H98.3961V14.4549C98.3845 15.3157 98.3845 16.0335 97.926 16.7756C97.8494 16.894 97.6659 17.1678 97.3783 17.4282C96.384 18.3141 94.7371 18.6125 93.4686 18.6125C93.1696 18.6125 92.4628 18.6005 91.6647 18.4314C89.8212 18.0265 89.0377 17.0766 88.7086 16.3189C88.5142 15.8637 88.4627 15.4454 88.45 14.4426V9.10003H90.7497Z" fill="#3A4850"/>
    <path fill-rule="evenodd" clip-rule="evenodd" d="M103.327 12.9696H107.026C107.038 12.9696 107.405 12.9696 107.602 12.9308C107.873 12.853 108.409 12.6306 108.409 11.8759C108.409 11.7842 108.399 11.4445 108.229 11.1834C107.94 10.7423 107.429 10.7282 106.959 10.7141H103.327V12.9696ZM107.377 9.09927C108.177 9.11303 108.529 9.15069 108.907 9.26695C110.096 9.61932 110.75 10.6384 110.75 11.8477C110.75 12.0842 110.739 12.5401 110.502 13.0609C110.084 14.0007 109.288 14.2854 108.344 14.4549L111.156 18.2995H108.424L105.966 14.599H103.327V18.2995H101.024V9.09927H107.377Z" fill="#3A4850"/>
    <path fill-rule="evenodd" clip-rule="evenodd" d="M120.45 11.9919C120.308 11.7724 120.046 11.3665 119.523 11.0148C119.219 10.8192 118.594 10.5056 117.678 10.5056C117.443 10.5056 116.856 10.5208 116.241 10.7805C115.039 11.2752 114.398 12.4211 114.398 13.714C114.398 14.351 114.594 15.0547 114.973 15.5885C115.052 15.7066 115.249 15.9405 115.548 16.1763C115.901 16.4617 116.608 16.9187 117.743 16.9187C119.091 16.9187 119.808 16.357 120.175 15.9289C120.332 15.7587 120.436 15.5885 120.647 15.1985L123.077 15.1709C122.949 15.6407 122.87 15.812 122.752 16.0441C122.606 16.3317 122.359 16.7503 121.796 17.2461C121.038 17.9092 119.824 18.6118 117.548 18.6118C117.026 18.6118 115.197 18.6002 113.759 17.5326C112.083 16.2951 112.005 14.3648 112.005 13.6875C112.005 12.7488 112.226 11.7724 112.75 10.9887C112.934 10.7146 113.104 10.5208 113.338 10.297C113.654 9.99823 113.809 9.89393 113.994 9.77731C114.594 9.37278 115.835 8.81325 117.678 8.81325C118.189 8.81325 119.966 8.86323 121.405 9.81425C122.19 10.3488 122.619 10.9887 122.79 11.2875C122.855 11.4197 122.922 11.5483 122.973 11.6805L120.45 11.9919Z" fill="#3A4850"/>
    <path fill-rule="evenodd" clip-rule="evenodd" d="M126.752 9.10003V12.6456H132.321V9.10003H134.634V18.2996H132.321V14.3513H126.752V18.2996H124.437V9.10003H126.752Z" fill="#3A4850"/>
</svg>
