<svg width="110" height="23" viewBox="0 0 110 23" fill="none" xmlns="http://www.w3.org/2000/svg">
    <path fill-rule="evenodd" clip-rule="evenodd" d="M98.4036 1.12336H109.035V2.80216C108.727 2.70035 108.402 2.64536 108.078 2.64536H101.966V10.4905H107.911C108.339 10.4905 108.719 10.4437 109.035 10.3653V12.0362C108.766 11.9733 108.394 11.942 107.935 11.942H101.966V20.054H107.895C108.22 20.054 108.608 20.0069 109.035 19.9051V21.7093H98.4192C98.4986 21.4113 98.5461 21.0895 98.5461 20.7367V2.1197C98.5461 1.71191 98.4986 1.37435 98.4036 1.12336Z" fill="#3A4850"/>
    <path fill-rule="evenodd" clip-rule="evenodd" d="M95.9415 6.46606L92.8699 6.44264C92.7196 4.73254 91.7299 3.07689 89.5526 2.77118C84.8902 2.3555 83.5755 7.43108 83.6947 11.142C83.8134 14.7193 84.3911 20.219 89.2046 20.219C91.2231 20.219 93.163 18.1634 93.0992 16.4294L95.9415 16.4062C95.7358 19.9835 91.5953 22.0546 89.624 22.1254C82.8871 22.3529 80.0687 17.9046 79.9264 11.5577C79.7998 5.80728 82.1745 0.699844 88.8324 0.699844C94.5323 0.778517 95.6328 4.12059 95.9415 6.46606Z" fill="#3A4850"/>
    <path fill-rule="evenodd" clip-rule="evenodd" d="M48.0305 19.3715L50.0652 17.685C51.1261 19.4188 51.9969 20.2107 54.1024 20.2107C56.2401 20.2107 58.0372 18.9242 58.0372 16.6492C58.0372 15.5271 57.5779 14.6095 56.6673 13.9191C56.2558 13.5976 55.2111 13.0407 53.5643 12.2637C51.1022 11.0948 48.7033 9.57282 48.7033 6.51332C48.7033 2.65348 52.0125 0.951002 55.5036 0.825508C57.5699 0.746836 60.135 1.87683 61.172 3.14756L59.1057 4.72455C58.2031 3.09285 56.6118 2.4651 55.3059 2.4651C52.6696 2.4651 50.5797 5.4933 52.7646 7.58016C53.3187 8.11371 54.451 8.77249 56.1767 9.55731C58.9316 10.8362 61.2827 12.3658 61.2827 15.7474C61.2827 16.9157 60.974 18.0063 60.3644 19.0029C59.1373 21.0111 57.0873 22.0153 54.2214 22.0153C50.928 22.0153 50.2789 21.2702 48.0305 19.3715Z" fill="#3A4850"/>
    <path fill-rule="evenodd" clip-rule="evenodd" d="M19.04 1.12336H29.6642V2.80216C29.3555 2.70035 29.031 2.64536 28.7061 2.64536H22.5946V10.4905H28.5399C28.9676 10.4905 29.3475 10.4437 29.6642 10.3653V12.0362C29.3947 11.9733 29.0231 11.942 28.5715 11.942H22.5946V20.054H28.5242C28.8486 20.054 29.2368 20.0069 29.6642 19.9051V21.7093H19.0562C19.1271 21.4113 19.1746 21.0895 19.1746 20.7367V2.1197C19.1746 1.71191 19.1271 1.37435 19.04 1.12336Z" fill="#3A4850"/>
    <path fill-rule="evenodd" clip-rule="evenodd" d="M0.459961 1.12336H4.3233V1.31174C4.3233 1.48433 4.37879 1.71191 4.47356 2.0021L9.92025 18.2494L15.5095 1.93159C15.5966 1.65665 15.6441 1.39014 15.6441 1.12336H17.52C17.3302 1.45275 17.1879 1.74321 17.1008 2.0021L10.7202 20.8698C10.6564 21.0503 10.6012 21.3329 10.5537 21.7093H7.387C7.34716 21.4581 7.27602 21.1758 7.17328 20.8698L0.919254 2.151C0.847833 1.97841 0.697574 1.62561 0.467927 1.12336H0.459961Z" fill="#3A4850"/>
    <path fill-rule="evenodd" clip-rule="evenodd" d="M40.8504 10.2872C40.1776 10.7581 39.3697 10.9933 38.4437 10.9933H36.8607V2.62247H38.2776C39.489 2.62247 40.4306 2.92056 41.1036 3.51672C42.022 4.34047 42.4892 5.45467 42.4892 6.85117C42.4892 8.35738 41.9428 9.50289 40.8504 10.2872ZM41.4915 11.8563C44.025 11.362 45.9641 9.4398 45.9641 6.69417C45.9641 3.09294 42.9246 1.12368 39.5203 1.12368H33.2979C33.3849 1.43756 33.4327 1.76722 33.4327 2.1124V20.721C33.4327 21.1214 33.3849 21.4587 33.2979 21.7097H37.0027C36.9159 21.4037 36.8684 21.074 36.8684 20.721V12.1699L38.0556 12.2954L44.2624 21.7097H47.9911L41.4915 11.8563Z" fill="#3A4850"/>
    <path fill-rule="evenodd" clip-rule="evenodd" d="M66.5631 13.7462L69.793 4.44982L73.1103 13.7462H66.5631ZM79.3088 20.8544L72.3897 1.80618C72.3106 1.57071 72.2631 1.33524 72.2551 1.12345H69.2626C69.2626 1.36655 69.2233 1.6257 69.128 1.88458L62.4229 20.8544C62.3356 21.1285 62.1933 21.4114 62.0032 21.7094H63.9348C63.9269 21.3956 63.9664 21.1054 64.0535 20.8544L66.0404 15.2605H73.6803L75.6435 20.8544C75.7465 21.1601 75.7938 21.4424 75.7938 21.7094H79.8C79.5703 21.3877 79.4036 21.0975 79.3088 20.8544Z" fill="#3A4850"/>
</svg>
